HIERARCHY
ROOT newVegas:Hips
{
	OFFSET 0.000000 96.479958 0.000000
	CHANNELS 6 Xposition Yposition Zposition Xrotation Yrotation Zrotation
	JOINT newVegas:Pelvis
	{
		OFFSET 0.000000 0.000000 0.000000
		CHANNELS 3 Xrotation Yrotation Zrotation
		JOINT newVegas:LeftUpLeg
		{
			OFFSET 18.735201 -5.666702 -4.541200
			CHANNELS 3 Xrotation Yrotation Zrotation
			JOINT newVegas:LeftLeg
			{
				OFFSET -0.021200 -31.938179 0.493100
				CHANNELS 3 Xrotation Yrotation Zrotation
				JOINT newVegas:LeftFoot
				{
					OFFSET 0.021200 -31.938179 -4.336299
					CHANNELS 3 Xrotation Yrotation Zrotation
					JOINT newVegas:LeftToeBase
					{
						OFFSET 0.943001 -26.722000 15.023500
						CHANNELS 3 Xrotation Yrotation Zrotation
						End Site
						{
							OFFSET 0.000000 30.670183 0.000000
						}
					}
				}
				JOINT newVegas:Left_PantLeg
				{
					OFFSET 0.663870 -9.044666 -1.108900
					CHANNELS 3 Xrotation Yrotation Zrotation
					End Site
					{
						OFFSET 1.415995 20.635357 0.000000
					}
				}
			}
		}
		JOINT newVegas:RightUpLeg
		{
			OFFSET -18.735201 -5.666702 -4.541200
			CHANNELS 3 Xrotation Yrotation Zrotation
			JOINT newVegas:RightLeg
			{
				OFFSET 0.018946 -31.938133 0.493100
				CHANNELS 3 Xrotation Yrotation Zrotation
				JOINT newVegas:RightFoot
				{
					OFFSET -0.018946 -31.938126 -4.336299
					CHANNELS 3 Xrotation Yrotation Zrotation
					JOINT newVegas:RightToeBase
					{
						OFFSET -0.943001 -26.722004 15.023500
						CHANNELS 3 Xrotation Yrotation Zrotation
						End Site
						{
							OFFSET 0.000000 30.670187 0.000000
						}
					}
				}
				JOINT newVegas:Right_PantLeg
				{
					OFFSET -0.661674 -9.044716 -1.108900
					CHANNELS 3 Xrotation Yrotation Zrotation
					End Site
					{
						OFFSET -1.415958 20.635269 0.000000
					}
				}
			}
		}
	}
	JOINT newVegas:Spine
	{
		OFFSET 0.000000 10.199997 -0.299500
		CHANNELS 3 Xrotation Yrotation Zrotation
		JOINT newVegas:Spine1
		{
			OFFSET 0.000000 11.900002 -1.516600
			CHANNELS 3 Xrotation Yrotation Zrotation
			JOINT newVegas:Spine2
			{
				OFFSET 0.000000 13.600006 -2.842500
				CHANNELS 3 Xrotation Yrotation Zrotation
				JOINT newVegas:Neck
				{
					OFFSET 0.000000 9.624100 -2.890100
					CHANNELS 3 Xrotation Yrotation Zrotation
					JOINT newVegas:Head
					{
						OFFSET 0.000000 14.068802 -1.351900
						CHANNELS 3 Xrotation Yrotation Zrotation
						JOINT newVegas:Hair_Back
						{
							OFFSET 0.000000 3.231903 -17.524799
							CHANNELS 3 Xrotation Yrotation Zrotation
							End Site
							{
								OFFSET 0.000000 19.849884 0.000000
							}
						}
						JOINT newVegas:Hair_Front
						{
							OFFSET 0.000000 31.260406 4.573800
							CHANNELS 3 Xrotation Yrotation Zrotation
							JOINT newVegas:Hair_Front1
							{
								OFFSET 0.000000 2.284103 11.993300
								CHANNELS 3 Xrotation Yrotation Zrotation
								JOINT newVegas:Hair_Front2
								{
									OFFSET 0.000000 2.284103 11.993300
									CHANNELS 3 Xrotation Yrotation Zrotation
									End Site
									{
										OFFSET 0.000000 12.208862 0.000000
									}
								}
							}
						}
						JOINT newVegas:Jowel
						{
							OFFSET 0.000000 -7.458206 6.864100
							CHANNELS 3 Xrotation Yrotation Zrotation
							End Site
							{
								OFFSET 0.000000 19.849884 0.000000
							}
						}
					}
				}
				JOINT newVegas:LeftShoulder
				{
					OFFSET 15.263000 10.923401 -0.547700
					CHANNELS 3 Xrotation Yrotation Zrotation
					JOINT newVegas:LeftArm
					{
						OFFSET 25.438599 -2.830597 -13.032500
						CHANNELS 3 Xrotation Yrotation Zrotation
						JOINT newVegas:LeftForeArm
						{
							OFFSET 29.960503 0.000000 0.000000
							CHANNELS 3 Xrotation Yrotation Zrotation
							JOINT newVegas:LeftHand
							{
								OFFSET 27.849251 0.000000 0.000000
								CHANNELS 3 Xrotation Yrotation Zrotation
								JOINT newVegas:LeftHandThumb1
								{
									OFFSET 4.487587 -3.305161 6.305391
									CHANNELS 3 Xrotation Yrotation Zrotation
									JOINT newVegas:LeftHandThumb2
									{
										OFFSET 5.480453 -3.164139 3.164143
										CHANNELS 3 Xrotation Yrotation Zrotation
										JOINT newVegas:LeftHandThumb3
										{
											OFFSET 5.159721 -2.978973 2.978967
											CHANNELS 3 Xrotation Yrotation Zrotation
											End Site
											{
												OFFSET 2.494507 5.926697 1.738678
											}
										}
									}
								}
								JOINT newVegas:LeftHandIndex1
								{
									OFFSET 18.578728 -0.527832 5.208049
									CHANNELS 3 Xrotation Yrotation Zrotation
									JOINT newVegas:LeftHandIndex2
									{
										OFFSET 3.192009 0.000000 0.000000
										CHANNELS 3 Xrotation Yrotation Zrotation
										JOINT newVegas:LeftHandIndex3
										{
											OFFSET 3.835129 0.000000 0.000000
											CHANNELS 3 Xrotation Yrotation Zrotation
											End Site
											{
												OFFSET -0.034599 3.816971 0.371180
											}
										}
									}
								}
								JOINT newVegas:LeftHandMiddle1
								{
									OFFSET 18.476105 0.000000 0.000000
									CHANNELS 3 Xrotation Yrotation Zrotation
									JOINT newVegas:LeftHandMiddle2
									{
										OFFSET 3.324875 0.000000 0.000000
										CHANNELS 3 Xrotation Yrotation Zrotation
										JOINT newVegas:LeftHandMiddle3
										{
											OFFSET 4.596550 0.000000 0.000000
											CHANNELS 3 Xrotation Yrotation Zrotation
											End Site
											{
												OFFSET 0.057701 4.578827 0.399218
											}
										}
									}
								}
								JOINT newVegas:LeftHandRing1
								{
									OFFSET 17.732719 0.121887 -4.201567
									CHANNELS 3 Xrotation Yrotation Zrotation
									JOINT newVegas:LeftHandRing2
									{
										OFFSET 2.733170 0.000000 0.000000
										CHANNELS 3 Xrotation Yrotation Zrotation
										JOINT newVegas:LeftHandRing3
										{
											OFFSET 3.178268 0.000000 0.000000
											CHANNELS 3 Xrotation Yrotation Zrotation
											End Site
											{
												OFFSET 0.119102 3.170624 0.185394
											}
										}
									}
								}
								JOINT newVegas:LeftHandPinky1
								{
									OFFSET 15.989624 -0.606689 -7.535461
									CHANNELS 3 Xrotation Yrotation Zrotation
									JOINT newVegas:LeftHandPinky2
									{
										OFFSET 2.538986 0.000000 0.000000
										CHANNELS 3 Xrotation Yrotation Zrotation
										JOINT newVegas:LeftHandPinky3
										{
											OFFSET 2.593102 0.000000 0.000000
											CHANNELS 3 Xrotation Yrotation Zrotation
											End Site
											{
												OFFSET -0.150902 2.584198 0.152708
											}
										}
									}
								}
							}
							JOINT newVegas:Left_Sleeve
							{
								OFFSET 0.267448 -0.649796 0.577675
								CHANNELS 3 Xrotation Yrotation Zrotation
								End Site
								{
									OFFSET 0.000000 15.991241 0.000000
								}
							}
							JOINT newVegas:Left_CapeC
							{
								OFFSET 15.715958 -8.608795 -6.935905
								CHANNELS 3 Xrotation Yrotation Zrotation
								JOINT newVegas:Left_CapeC1
								{
									OFFSET 0.000000 -8.688499 0.000000
									CHANNELS 3 Xrotation Yrotation Zrotation
									End Site
									{
										OFFSET 0.000000 8.688499 0.000000
									}
								}
							}
						}
						JOINT newVegas:Left_CapeB
						{
							OFFSET 26.118385 -8.608795 -7.079235
							CHANNELS 3 Xrotation Yrotation Zrotation
							JOINT newVegas:Left_CapeB1
							{
								OFFSET 0.000000 -8.688499 0.000000
								CHANNELS 3 Xrotation Yrotation Zrotation
								End Site
								{
									OFFSET 0.000000 8.688499 0.000000
								}
							}
						}
						JOINT newVegas:Left_CapeA
						{
							OFFSET 5.115639 -8.608795 -10.395809
							CHANNELS 3 Xrotation Yrotation Zrotation
							JOINT newVegas:Left_CapeA1
							{
								OFFSET 0.000000 -8.688499 0.000000
								CHANNELS 3 Xrotation Yrotation Zrotation
								End Site
								{
									OFFSET 0.000000 8.688499 0.000000
								}
							}
						}
					}
				}
				JOINT newVegas:RightShoulder
				{
					OFFSET -15.263000 10.923401 -0.547700
					CHANNELS 3 Xrotation Yrotation Zrotation
					JOINT newVegas:RightArm
					{
						OFFSET -25.438599 -2.830597 -13.032500
						CHANNELS 3 Xrotation Yrotation Zrotation
						JOINT newVegas:RightForeArm
						{
							OFFSET -29.960503 0.000000 0.000000
							CHANNELS 3 Xrotation Yrotation Zrotation
							JOINT newVegas:RightHand
							{
								OFFSET -27.849251 0.000000 0.000000
								CHANNELS 3 Xrotation Yrotation Zrotation
								JOINT newVegas:RightHandThumb1
								{
									OFFSET -4.487587 -3.305161 6.305391
									CHANNELS 3 Xrotation Yrotation Zrotation
									JOINT newVegas:RightHandThumb2
									{
										OFFSET -5.480453 -3.164139 3.164143
										CHANNELS 3 Xrotation Yrotation Zrotation
										JOINT newVegas:RightHandThumb3
										{
											OFFSET -5.159721 -2.978973 2.978967
											CHANNELS 3 Xrotation Yrotation Zrotation
											End Site
											{
												OFFSET -2.494507 5.926697 1.738678
											}
										}
									}
								}
								JOINT newVegas:RightHandIndex1
								{
									OFFSET -18.578728 -0.527832 5.208049
									CHANNELS 3 Xrotation Yrotation Zrotation
									JOINT newVegas:RightHandIndex2
									{
										OFFSET -3.192009 0.000000 0.000000
										CHANNELS 3 Xrotation Yrotation Zrotation
										JOINT newVegas:RightHandIndex3
										{
											OFFSET -3.835129 0.000000 0.000000
											CHANNELS 3 Xrotation Yrotation Zrotation
											End Site
											{
												OFFSET 0.034599 3.816971 0.371180
											}
										}
									}
								}
								JOINT newVegas:RightHandMiddle1
								{
									OFFSET -18.476105 0.000000 0.000000
									CHANNELS 3 Xrotation Yrotation Zrotation
									JOINT newVegas:RightHandMiddle2
									{
										OFFSET -3.324875 0.000000 0.000000
										CHANNELS 3 Xrotation Yrotation Zrotation
										JOINT newVegas:RightHandMiddle3
										{
											OFFSET -4.596550 0.000000 0.000000
											CHANNELS 3 Xrotation Yrotation Zrotation
											End Site
											{
												OFFSET -0.057701 4.578827 0.399218
											}
										}
									}
								}
								JOINT newVegas:RightHandRing1
								{
									OFFSET -17.732719 0.121887 -4.201567
									CHANNELS 3 Xrotation Yrotation Zrotation
									JOINT newVegas:RightHandRing2
									{
										OFFSET -2.733170 0.000000 0.000000
										CHANNELS 3 Xrotation Yrotation Zrotation
										JOINT newVegas:RightHandRing3
										{
											OFFSET -3.178268 0.000000 0.000000
											CHANNELS 3 Xrotation Yrotation Zrotation
											End Site
											{
												OFFSET -0.119102 3.170624 0.185394
											}
										}
									}
								}
								JOINT newVegas:RightHandPinky1
								{
									OFFSET -15.989624 -0.606689 -7.535461
									CHANNELS 3 Xrotation Yrotation Zrotation
									JOINT newVegas:RightHandPinky2
									{
										OFFSET -2.538986 0.000000 0.000000
										CHANNELS 3 Xrotation Yrotation Zrotation
										JOINT newVegas:RightHandPinky3
										{
											OFFSET -2.593102 0.000000 0.000000
											CHANNELS 3 Xrotation Yrotation Zrotation
											End Site
											{
												OFFSET 0.150902 2.584198 0.152708
											}
										}
									}
								}
							}
							JOINT newVegas:Right_CapeC
							{
								OFFSET -15.715958 -8.608795 -6.935905
								CHANNELS 3 Xrotation Yrotation Zrotation
								JOINT newVegas:Right_CapeC1
								{
									OFFSET 0.000000 -8.688499 0.000000
									CHANNELS 3 Xrotation Yrotation Zrotation
									End Site
									{
										OFFSET 0.000000 8.688499 0.000000
									}
								}
							}
							JOINT newVegas:Right_Sleeve
							{
								OFFSET -0.267448 -0.649994 0.577675
								CHANNELS 3 Xrotation Yrotation Zrotation
								End Site
								{
									OFFSET 0.000000 15.991302 0.000000
								}
							}
						}
						JOINT newVegas:Right_CapeA
						{
							OFFSET -5.115540 -8.608795 -10.395824
							CHANNELS 3 Xrotation Yrotation Zrotation
							JOINT newVegas:Right_CapeA1
							{
								OFFSET 0.000000 -8.688499 0.000000
								CHANNELS 3 Xrotation Yrotation Zrotation
								End Site
								{
									OFFSET 0.000000 8.688499 0.000000
								}
							}
						}
						JOINT newVegas:Right_CapeB
						{
							OFFSET -26.118187 -8.608795 -7.079266
							CHANNELS 3 Xrotation Yrotation Zrotation
							JOINT newVegas:Right_CapeB1
							{
								OFFSET 0.000000 -8.688499 0.000000
								CHANNELS 3 Xrotation Yrotation Zrotation
								End Site
								{
									OFFSET 0.000000 8.688499 0.000000
								}
							}
						}
					}
				}
				JOINT newVegas:Left_Collar
				{
					OFFSET 18.625099 8.655502 8.828100
					CHANNELS 3 Xrotation Yrotation Zrotation
					JOINT newVegas:Left_Collar1
					{
						OFFSET 14.783401 10.540405 -1.259500
						CHANNELS 3 Xrotation Yrotation Zrotation
						End Site
						{
							OFFSET 0.000000 18.199875 0.000000
						}
					}
				}
				JOINT newVegas:Collar_Back
				{
					OFFSET 0.000000 15.630707 -20.132601
					CHANNELS 3 Xrotation Yrotation Zrotation
					End Site
					{
						OFFSET 0.000000 22.523010 0.000000
					}
				}
				JOINT newVegas:Left_Peck
				{
					OFFSET 17.239599 -5.132599 25.482599
					CHANNELS 3 Xrotation Yrotation Zrotation
					End Site
					{
						OFFSET 0.000000 22.523010 0.000000
					}
				}
				JOINT newVegas:Right_Peck
				{
					OFFSET -17.239599 -5.132202 25.482599
					CHANNELS 3 Xrotation Yrotation Zrotation
					End Site
					{
						OFFSET 0.000000 22.523010 0.000000
					}
				}
				JOINT newVegas:Right_Collar
				{
					OFFSET -18.625099 8.655792 8.828100
					CHANNELS 3 Xrotation Yrotation Zrotation
					JOINT newVegas:Right_Collar1
					{
						OFFSET -14.783401 10.539993 -1.259500
						CHANNELS 3 Xrotation Yrotation Zrotation
						End Site
						{
							OFFSET 0.000000 18.199631 0.000000
						}
					}
				}
			}
		}
		JOINT newVegas:Belly
		{
			OFFSET 0.000000 -6.540398 9.014299
			CHANNELS 3 Xrotation Yrotation Zrotation
			End Site
			{
				OFFSET 0.000000 11.566666 0.000000
			}
		}
	}
	JOINT newVegas:ElvisFacialAnim_Joint
	{
		OFFSET 1.000000 -95.330101 -8.825800
		CHANNELS 3 Xrotation Yrotation Zrotation
		End Site
		{
			OFFSET 0.000000 35.315800 0.000000
		}
	}
}
MOTION
Frames: 4
Frame Time: 0.033333
-3.018436 46.149620 3.439449 -40.578154 -32.508972 -20.411571 0.000001 0.000001 0.000001 -88.296301 -14.420471 21.858508 123.374212 -12.013547 -0.900624 1.331655 -4.884263 -5.072827 0.000000 0.000002 0.000000 0.000000 -0.000001 -0.000000 5.380148 44.025706 -32.175734 143.219286 44.549868 7.476029 -75.091913 -16.879026 13.215979 -0.000000 -0.000002 -0.000000 0.000000 -0.000001 -0.000003 58.786755 2.409064 2.138076 10.734615 0.744710 -4.521340 17.520055 -0.085158 -4.562561 -1.362553 2.877710 -0.258142 -1.362563 2.877716 -0.258134 0.000001 -0.000001 0.000000 -1.362482 2.877726 -0.258139 -1.362558 2.877681 -0.258138 -0.000001 -0.000001 0.000001 0.000001 -0.000001 0.000000 -37.559050 -4.830602 1.310665 -73.285894 -19.463819 -69.165412 -0.000029 -49.482644 -0.000022 -122.217520 3.139995 22.355306 4.709223 9.560387 3.111991 19.473190 -1.474915 7.636928 -0.000003 0.000004 0.000001 -0.212822 3.933717 -36.747128 2.942133 5.078904 -60.144583 0.000004 0.000000 -0.000000 0.405912 5.507035 -52.453165 3.387154 5.308604 -65.057449 -0.000003 -0.000001 0.000001 -0.074368 5.736773 -61.061413 4.055038 5.569489 -72.094921 -0.000001 -0.000001 0.000003 -6.565553 4.545168 -72.425222 3.299614 5.267176 -64.107835 0.000004 0.000002 0.000001 0.000001 -0.000003 -0.000000 0.000001 -0.000003 -0.000000 0.000001 -0.000003 0.000000 -0.000002 0.000002 0.000001 -0.000002 0.000002 0.000001 -0.000002 0.000002 0.000001 -0.000004 0.000001 0.000001 -42.139825 -9.769744 -7.575443 -51.815635 45.272119 94.913852 -0.000768 103.657437 0.000760 -37.420062 -24.461418 -24.583536 8.377119 -4.904134 11.021997 21.620214 -18.183910 -18.379225 -0.000000 -0.000001 0.000001 -0.920006 1.683602 12.434972 0.748105 -2.533471 32.898293 -0.000001 0.000000 -0.000001 3.413074 -7.186234 51.650263 6.296798 -4.359580 110.634687 0.000001 0.000000 0.000001 -3.349034 -2.600418 57.010571 5.440884 -4.590883 99.698140 0.000000 0.000001 0.000001 -3.996430 -3.303956 64.593864 4.058832 -4.618633 82.610530 -0.000002 -0.000004 -0.000001 -0.000000 -0.000000 -0.000002 -0.000000 -0.000000 -0.000001 -0.000000 -0.000000 -0.000000 0.000001 -0.000001 0.000000 0.000001 0.000000 -0.000000 0.000001 -0.000001 0.000000 0.000001 -0.000000 -0.000000 -0.000001 -0.000001 -0.000001 -0.000001 -0.000001 -0.000001 -0.000001 -0.000001 -0.000001 -0.000001 -0.000001 -0.000001 -0.000001 -0.000001 -0.000001 -0.000001 -0.000001 -0.000001 -0.000001 -0.000001 -0.000001 -0.000002 0.000000 -0.000001 0.000001 0.000001 0.000001 
-2.989473 46.070572 3.148579 -40.230463 -31.973379 -19.755678 -0.000000 0.000000 0.000001 -88.820149 -14.138781 20.939861 123.820893 -11.922679 -0.894814 -0.058032 -4.254809 -4.747693 0.000000 -0.000001 -0.000000 0.000000 -0.000001 0.000000 8.039712 44.079145 -36.036577 142.092482 45.526353 7.580185 -72.947370 -17.771006 15.266328 -0.000001 0.000002 -0.000001 -0.000001 0.000000 0.000001 59.330356 2.623629 2.972018 10.184493 0.781363 -4.457606 16.904030 -0.068305 -4.508987 -1.712635 2.840836 -0.437515 -1.712669 2.840841 -0.437520 -0.000003 0.000001 -0.000001 -1.712673 2.840838 -0.437519 -1.712571 2.840836 -0.437523 0.000001 -0.000002 -0.000000 -0.000003 0.000001 -0.000001 -37.123724 -5.373505 0.318103 -72.969062 -18.934485 -69.514407 -0.000006 -49.933887 -0.000004 -119.996820 2.622605 22.916132 3.790366 6.097000 1.526599 19.413641 -1.560679 7.659966 -0.000002 -0.000005 0.000000 -0.202994 3.962935 -36.976691 2.947871 5.082191 -60.209306 -0.000001 -0.000001 -0.000001 0.438754 5.586574 -53.470153 3.275380 5.255400 -63.843520 0.000001 0.000000 -0.000000 0.143406 5.810500 -60.367698 4.038919 5.564289 -71.928756 0.000001 -0.000004 0.000001 -6.542396 4.383274 -71.612956 3.263710 5.249673 -63.715932 -0.000003 -0.000003 0.000000 -0.000002 0.000000 0.000002 -0.000002 0.000000 0.000002 -0.000002 0.000001 0.000002 0.000002 -0.000001 -0.000002 0.000001 -0.000000 -0.000003 0.000002 -0.000001 -0.000002 -0.000000 -0.000002 -0.000001 -41.898931 -9.952564 -8.285727 -51.328264 45.598831 94.627169 0.001880 103.102081 -0.001864 -37.480878 -22.307140 -22.867227 7.219827 -2.980780 10.628316 20.824791 -18.241118 -16.198320 0.000001 0.000000 0.000001 -1.005095 1.914662 12.814738 0.707573 -2.469745 31.969561 -0.000000 -0.000000 0.000001 3.705718 -7.374052 52.464206 6.313500 -4.353272 110.854660 0.000001 0.000000 -0.000000 -3.227113 -2.862052 58.367300 5.456964 -4.588116 99.899228 0.000000 -0.000001 -0.000001 -3.861214 -3.630156 66.450480 3.967918 -4.605968 81.480025 -0.000000 0.000003 0.000001 0.000001 0.000002 -0.000000 -0.000001 -0.000000 -0.000000 0.000001 0.000001 -0.000003 -0.000000 -0.000005 0.000002 -0.000000 -0.000004 0.000000 -0.000000 -0.000005 0.000002 -0.000000 -0.000004 0.000001 0.000002 0.000000 0.000001 0.000002 0.000000 0.000001 0.000002 0.000000 0.000001 0.000002 0.000000 0.000001 0.000002 0.000000 0.000001 0.000002 0.000000 0.000001 0.000002 0.000000 0.000001 -0.000000 0.000002 -0.000003 -0.000000 0.000000 0.000001 
-3.143980 45.599281 2.822159 -39.952587 -31.292665 -19.146965 0.000002 -0.000000 -0.000000 -90.027091 -14.804932 20.515484 124.389151 -12.376160 -0.966182 -0.361140 -3.973899 -4.978987 -0.000000 -0.000001 0.000000 0.000000 0.000001 0.000000 14.642520 41.942880 -43.525394 140.570511 46.247549 7.392023 -71.984286 -17.580530 17.434965 -0.000001 -0.000000 0.000001 0.000002 -0.000000 -0.000002 59.794051 3.449799 4.156993 9.670922 0.820489 -4.183251 16.225080 0.004163 -4.242654 -2.152990 2.788894 -0.811583 -2.152986 2.788895 -0.811585 0.000002 0.000000 0.000001 -2.152972 2.788907 -0.811587 -2.152994 2.788898 -0.811581 0.000003 0.000001 -0.000001 0.000002 0.000000 -0.000000 -36.085153 -6.233115 -1.045863 -72.500901 -16.676040 -70.536771 -0.000029 -51.867838 -0.000011 -116.119609 4.667449 23.529985 2.033101 -0.525093 1.424190 19.423210 -1.403053 7.505288 -0.000000 -0.000004 -0.000001 -0.239795 3.778908 -35.099372 2.799947 4.994924 -58.525070 -0.000002 -0.000002 -0.000000 -0.104406 5.278512 -54.826287 3.016491 5.120698 -60.981247 -0.000003 -0.000001 0.000003 -0.238820 5.511903 -59.279342 4.007390 5.553956 -71.603346 0.000001 -0.000001 -0.000002 -6.900680 4.093856 -70.835223 3.181573 5.208486 -62.814866 0.000003 -0.000005 0.000003 0.000002 -0.000000 -0.000001 0.000002 -0.000000 -0.000001 0.000002 0.000000 -0.000001 -0.000000 0.000003 -0.000000 -0.000000 0.000003 0.000000 -0.000000 0.000003 -0.000000 -0.000002 0.000003 -0.000000 -41.090165 -10.030347 -9.058499 -51.066066 46.053141 93.504518 0.000999 102.141265 -0.000998 -37.985079 -19.568060 -21.440539 6.095375 -1.095780 8.933236 21.196061 -17.780915 -14.747159 0.000004 0.000000 -0.000002 -1.067810 1.911147 13.477000 0.608134 -2.302882 29.581372 0.000001 -0.000000 -0.000000 3.892419 -7.446848 53.765313 6.306888 -4.355752 110.767650 -0.000000 -0.000000 0.000000 -3.015633 -3.162585 59.697670 5.465836 -4.586569 100.009945 0.000000 0.000001 0.000001 -3.748950 -3.847180 67.670734 3.793532 -4.576545 79.301543 -0.000001 0.000002 -0.000005 -0.000003 0.000004 0.000001 -0.000003 0.000001 0.000001 -0.000003 0.000004 0.000001 0.000002 -0.000004 0.000000 0.000002 -0.000003 0.000002 0.000002 -0.000004 0.000000 0.000002 -0.000003 0.000003 0.000001 0.000002 0.000000 0.000001 0.000002 0.000000 0.000001 0.000002 0.000000 0.000001 0.000002 0.000000 0.000001 0.000002 0.000000 0.000001 0.000002 0.000000 0.000001 0.000002 0.000000 0.000002 -0.000003 0.000001 0.000002 -0.000000 -0.000000 
-3.468651 44.887863 2.495998 -39.823650 -30.476881 -18.333594 0.000002 -0.000001 -0.000001 -91.340263 -16.082447 20.737380 124.882127 -12.988045 -1.106786 -0.015343 -4.506574 -5.993434 -0.000000 0.000000 -0.000000 0.000000 -0.000001 -0.000000 22.398087 38.910577 -52.716698 138.360399 46.701733 6.895604 -69.205027 -17.738765 21.127923 -0.000001 0.000001 0.000000 0.000001 0.000001 0.000001 60.219333 4.484518 5.311945 9.176913 0.856272 -3.820032 15.457527 0.098816 -3.885016 -2.414153 2.695632 -1.220831 -2.414144 2.695628 -1.220823 0.000001 -0.000002 0.000000 -2.414077 2.695633 -1.220830 -2.414122 2.695647 -1.220834 0.000001 0.000001 -0.000002 0.000001 -0.000002 -0.000001 -34.477746 -7.106513 -1.809880 -71.655719 -14.497227 -71.785637 0.000024 -54.214698 0.000025 -111.624409 9.801088 22.585523 -0.767631 -7.245945 5.195745 19.642063 -0.624337 6.996241 0.000001 0.000000 -0.000003 -0.161343 3.746409 -32.989144 2.416864 4.740054 -54.012849 0.000001 -0.000001 -0.000001 -1.446458 4.583699 -57.244017 2.691001 4.926817 -57.265477 -0.000001 0.000001 0.000002 -1.028030 4.899515 -57.744632 3.883066 5.511238 -70.313840 -0.000001 0.000001 0.000000 -6.944033 3.859837 -69.831301 3.041500 5.134421 -61.260848 0.000001 -0.000003 -0.000000 -0.000000 0.000000 -0.000001 -0.000000 0.000000 -0.000001 -0.000000 0.000001 -0.000001 0.000001 0.000001 -0.000003 0.000001 0.000002 -0.000003 0.000001 0.000001 -0.000003 0.000001 0.000001 -0.000002 -39.465448 -9.983197 -9.062075 -50.801376 46.680470 91.357113 0.005934 100.750153 -0.005874 -39.191673 -16.280734 -20.513339 5.060400 0.809383 5.922194 22.610349 -16.788149 -13.972031 0.000001 -0.000001 0.000001 -1.088505 1.708744 14.197228 0.460233 -2.020470 25.662226 0.000000 0.000001 0.000005 3.844457 -7.328169 55.523079 6.278981 -4.366220 110.400364 0.000000 -0.000001 -0.000000 -2.686760 -3.562652 61.449491 5.471348 -4.585596 100.079210 0.000000 -0.000001 -0.000000 -3.752490 -3.964325 68.535648 3.575110 -4.529955 76.550609 -0.000001 -0.000000 -0.000001 -0.000002 0.000001 0.000000 -0.000002 0.000000 -0.000003 -0.000002 0.000001 -0.000000 -0.000001 0.000003 0.000000 -0.000001 0.000003 0.000002 -0.000001 0.000003 0.000000 -0.000001 0.000003 0.000003 -0.000002 0.000000 -0.000002 -0.000002 0.000000 -0.000002 -0.000002 0.000000 -0.000002 -0.000002 0.000000 -0.000002 -0.000002 0.000000 -0.000002 -0.000002 0.000000 -0.000002 -0.000002 0.000000 -0.000002 0.000001 -0.000003 0.000001 0.000002 -0.000001 -0.000001 
